<svg xmlns="http://www.w3.org/2000/svg" xmlns:svg="http://www.w3.org/2000/svg" id="svg4" width="128" height="128" class="icon" version="1.1" viewBox="0 0 1024 1024"><metadata id="metadata10"/><path style="stroke-width:.886554" id="path2" fill="#dbdbdb" d="m 822.81059,267.99946 c 0,-35.93499 -28.73408,-66.14406 -64.66907,-66.14406 H 266.39977 c -35.93498,0 -65.80733,30.26313 -66.19601,66.19601 l -5.31729,491.57057 c -0.38869,35.93287 37.04169,66.19601 72.97667,66.19601 383.62593,-0.56477 363.09161,-0.85803 491.13767,-0.30175 16.72661,0.0727 64.53976,-29.70774 63.90294,-61.16688 -0.61095,-171.80126 -0.77385,-330.50981 -0.0932,-496.3499 z M 256.94319,759.79317 V 268.05141 c 0,-5.67395 3.78263,-9.45658 9.45658,-9.45658 h 491.74175 c 5.67395,0 9.45658,3.78263 9.45658,9.45658 v 491.74176 c 0,5.67394 -3.78263,9.45657 -9.45658,9.45657 H 266.39977 c -5.67395,0 -9.45658,-3.78263 -9.45658,-9.45657 z"/></svg>