<svg xmlns="http://www.w3.org/2000/svg" width="22" height="22" version="1.1" viewBox="0 0 5.821 5.821"><defs><filter id="filter941-0" color-interpolation-filters="sRGB"><feFlood flood-color="#000" flood-opacity=".498" result="flood"/><feComposite in="flood" in2="SourceGraphic" operator="in" result="composite1"/><feGaussianBlur in="composite1" result="blur" stdDeviation=".2"/><feOffset dx=".1" dy="6" result="offset"/><feComposite in="SourceGraphic" in2="offset" result="composite2"/></filter></defs><g transform="matrix(.26458333 0 0 .26458333 .00787999 -.134677)"><g stroke-width="1.152"><path fill="gray" d="m8.7408568 9.5405629s-0.2569263 2.2719321-2.6936844 3.1550201c3.4624426 0.379318 7.1818106-1.513296 7.1818106-1.513296z"/><path fill="#666" d="m6.4797237 9.1992349s5.8063753 1.1429801 11.61275 6.8578891c0 0-1.85161-5.301769-3.745522-6.7291061-1.89391-1.4273365-3.826376-2.5688848-5.1521339-2.0283898-1.3257586 0.5404967-2.7150947 1.8996068-2.7150944 1.8996068z"/><path fill="#4d4d4d" d="m4.1650882 9.5440599s1.1612749-4.5719254 3.4838246-4.5719254c4.6451002 0 12.193387 7.4293785 12.193387 7.4293785s-6.387013-4.0004345-11.032112-4.0004345c-3.4838245 0-4.6450994 1.1429814-4.6450996 1.1429814z"/></g><path fill="#333" stroke-width="1.221" d="m3.1247266 8.1949778c-0.6842877 0-1.1612747-1.2844632-1.1612747-2.568926 0-1.2844634 1.1612747-2.5689267 2.3225497-2.5689267 8.7095614 0 15.677212 4.8167373 15.677212 4.8167373s-6.387014-2.2478106-9.870839-2.2478106c-4.3547804 0-4.645099 0-6.9676484 2.568926z"/><rect width="6" height="2" x="2.963" y="14.633" fill="#666" stroke-width=".906"/><circle cx="16.596" cy="16.58" r="3.381" fill="#2cbce9" stroke-width="1.693"/><circle cx="16" cy="14" r="2" fill="#00d4ff" stroke-width="1.002" filter="url(#filter941-0)" transform="matrix(1.1269843 0 0 1.1269843 -1.4357181 .80217199)"/></g></svg>