<svg xmlns="http://www.w3.org/2000/svg" xmlns:svg="http://www.w3.org/2000/svg" xmlns:xlink="http://www.w3.org/1999/xlink" id="svg8" width="48" height="48" version="1.1" viewBox="0 0 12.7 12.7"><defs id="defs2"><linearGradient id="linearGradient847"><stop id="stop843" offset="0" style="stop-color:#ffacad;stop-opacity:1"/><stop id="stop845" offset="1" style="stop-color:#ff5c5b;stop-opacity:1"/></linearGradient><linearGradient id="linearGradient4759"><stop id="stop4755" offset="0" style="stop-color:#ef3cff;stop-opacity:1"/><stop id="stop4757" offset="1" style="stop-color:#1c90ff;stop-opacity:1"/></linearGradient><linearGradient id="linearGradient953" x1="85.23" x2="113.087" y1="28.293" y2="35.516" gradientTransform="matrix(0.34597512,0.06144722,-0.06655638,0.31941658,-25.1488,274.41205)" gradientUnits="userSpaceOnUse" xlink:href="#linearGradient4759"/><linearGradient id="linearGradient955" x1="39.631" x2="72.363" y1="196.652" y2="208.232" gradientTransform="matrix(0.15666471,0,0,0.15666471,-5.1793298,256.3406)" gradientUnits="userSpaceOnUse" xlink:href="#linearGradient847"/></defs><metadata id="metadata5"/><g id="layer1" transform="translate(0,-284.29999)"><g id="g889" transform="matrix(0.77674917,0,0,0.77993751,1.4662318,64.012038)"><g id="g44" transform="matrix(1.1963196,0,0,1.1963196,-1.3111729,-57.928707)"><path style="fill:#275bbd;fill-opacity:1;stroke:none;stroke-width:.02480469px;stroke-linecap:butt;stroke-linejoin:miter;stroke-opacity:1" id="path879-7" d="m 4.8977933,290.46043 c 0,0 -0.3822449,0.7135 -0.5365115,0.93777 -0.154295,0.22431 -0.5217135,0.4236 -0.5217135,0.4236 l 0.6747961,-0.0816 1.7063455,-0.35106 c 0,0 -0.7913874,-1.07043 -1.3229166,-0.92869 z"/><path id="path4715-0" d="m 4.1456075,290.71139 c 0,0 1.1173813,-2.75102 3.3019109,-0.59828 2.1845208,2.15274 3.6949266,5.47345 3.6949266,5.47345 0,0 -2.9944646,-4.26031 -6.9968375,-4.87517 z" style="fill:#008dff;fill-opacity:1;stroke:none;stroke-width:.08956835px;stroke-linecap:butt;stroke-linejoin:miter;stroke-opacity:1"/><path id="path4715-6-93" d="m 2.2137987,290.23705 c 0,0 -0.1508518,-2.94653 2.7747518,-1.81527 2.9256022,1.13127 6.6242245,4.28351 6.6242245,4.28351 0,0 -4.81123,-3.07932 -9.3989763,-2.46824 z" style="fill:url(#linearGradient953);fill-opacity:1;stroke:none;stroke-width:.08956835px;stroke-linecap:butt;stroke-linejoin:miter;stroke-opacity:1"/><path id="path4715-6-9-6" d="m 1.2940265,289.53029 c 0,0 -1.32291659,-2.64583 1.9849644,-2.35592 3.1595803,0.27691 7.8046181,2.09134 7.8046181,2.09134 0,0 -5.6043094,-1.52438 -9.7895825,0.26458 z" style="fill:url(#linearGradient955);fill-opacity:1;stroke:none;stroke-width:.08956835px;stroke-linecap:butt;stroke-linejoin:miter;stroke-opacity:1;opacity:1"/></g></g></g></svg>